<svg xmlns="http://www.w3.org/2000/svg" viewBox="0 0 14 14"><path d="m1 7c0-3.239 2.6815-5.8405 6-5.8405s6 2.6015 6 5.8405c0 3.238-2.6815 5.8405-6 5.8405s-6-2.602-6-5.8405zm5.867 1.99c-.584 0-1.0615-.052-1.38-.1055-.372-.079-.6115-.292-.7705-.584-.133-.293-.212-.7695-.1855-1.407 0-.3445.0265-.6635.052-.9825.054-.318.08-.5835.1335-.797l.0525-.212v-.026c0-.0525-.0525-.1065-.106-.1065l-.77-.106h-.026c-.0525 0-.1065.0525-.133.08 0 .052-.0265.0795-.052.1855-.054.239-.0805.451-.1335.743-.0545.3425-.0815.689-.0795 1.0355 0 0-.0265.0795 0 .717s.133 1.1415.345 1.54c.2125.371.558.663 1.062.8225.505.16 1.1945.2395 2.071.2395h.1065c.8765 0 1.566-.079 2.07-.2395.505-.159.8505-.451 1.063-.8225.2125-.3975.319-.9025.345-1.54.0265-.6375 0-.717 0-.717 0-.3715-.052-.7175-.08-1.0345-.0525-.319-.079-.5315-.133-.7435-.0265-.106-.0265-.1595-.0525-.1855 0-.0535-.0525-.08-.133-.08h-.0265l-.77.106c-.0525 0-.1065.0535-.1065.1065v.026l.053.212c.053.2135.079.4785.133.7965.0525.3195.0525.6375.0525.9825 0 .6375-.052 1.0885-.1855 1.407-.133.293-.3975.505-.7695.584-.3195.08-.797.1065-1.381.1065h-.2655z" fill="#3544b1"/></svg>